<svg width="24" height="24" viewBox="0 0 24 24" fill="none" xmlns="http://www.w3.org/2000/svg">
<path d="M16.95 10.2299L11.29 15.8899C11.1975 15.9826 11.0876 16.0561 10.9666 16.1063C10.8457 16.1565 10.716 16.1823 10.585 16.1823C10.454 16.1823 10.3243 16.1565 10.2034 16.1063C10.0824 16.0561 9.97251 15.9826 9.88 15.8899L7.05 13.0599C6.95742 12.9673 6.88398 12.8574 6.83387 12.7364C6.78377 12.6155 6.75798 12.4858 6.75798 12.3549C6.75798 12.224 6.78377 12.0943 6.83387 11.9733C6.88398 11.8524 6.95742 11.7425 7.05 11.6499C7.14258 11.5573 7.25249 11.4839 7.37346 11.4338C7.49442 11.3837 7.62407 11.3579 7.755 11.3579C7.88593 11.3579 8.01558 11.3837 8.13654 11.4338C8.25751 11.4839 8.36742 11.5573 8.46 11.6499L10.58 13.7699L15.53 8.81989C15.6225 8.72719 15.7324 8.65364 15.8534 8.60346C15.9743 8.55327 16.104 8.52745 16.235 8.52745C16.366 8.52745 16.4957 8.55327 16.6166 8.60346C16.7376 8.65364 16.8475 8.72719 16.94 8.81989C17.34 9.20989 17.34 9.83989 16.95 10.2299ZM4 11.9999C4 9.66989 5.02 7.57989 6.62 6.11989L8.15 7.64989C8.2205 7.71899 8.30987 7.76568 8.40686 7.78407C8.50384 7.80246 8.60411 7.79173 8.69501 7.75323C8.7859 7.71474 8.86337 7.65019 8.91765 7.56774C8.97193 7.48528 9.00058 7.3886 9 7.28989V2.99989C9 2.71989 8.78 2.49989 8.5 2.49989H4.21C3.76 2.49989 3.54 3.03989 3.86 3.34989L5.2 4.69989C3.24 6.51989 2 9.10989 2 11.9999C2 16.7499 5.32 20.7299 9.76 21.7499C10.39 21.8899 11 21.4199 11 20.7699C11 20.2999 10.67 19.8999 10.21 19.7899C6.66 18.9799 4 15.7999 4 11.9999ZM22 11.9999C22 7.24989 18.68 3.26989 14.24 2.24989C13.61 2.10989 13 2.57989 13 3.22989C13 3.69989 13.33 4.09989 13.79 4.20989C17.34 5.01989 20 8.19989 20 11.9999C20 14.3299 18.98 16.4199 17.38 17.8799L15.85 16.3499C15.7795 16.2808 15.6901 16.2341 15.5931 16.2157C15.4962 16.1973 15.3959 16.208 15.305 16.2465C15.2141 16.285 15.1366 16.3496 15.0823 16.432C15.0281 16.5145 14.9994 16.6112 15 16.7099V20.9999C15 21.2799 15.22 21.4999 15.5 21.4999H19.79C20.24 21.4999 20.46 20.9599 20.14 20.6499L18.8 19.2999C20.76 17.4799 22 14.8899 22 11.9999Z" fill="#62B5F5"/>
</svg>
