<svg width="24" height="24" viewBox="0 0 24 24" fill="none" xmlns="http://www.w3.org/2000/svg">
<g clip-path="url(#clip0_17_1571)">
<path d="M16.4849 14.9044C16.2871 14.7062 16.0187 14.5949 15.7388 14.5949H15.3433L15.0481 14.3103C16.0811 13.1086 16.703 11.5486 16.703 9.85152C16.703 6.06737 13.6357 3 9.85152 3C6.06737 3 3 6.06737 3 9.85152C3 13.6357 6.06737 16.703 9.85152 16.703C11.5486 16.703 13.1086 16.0811 14.3103 15.0481L14.5949 15.3433V15.7388C14.5949 16.0187 14.7062 16.2871 14.9044 16.4849L19.1199 20.692C19.5317 21.103 20.1985 21.1026 20.6099 20.6913L20.6913 20.6099C21.1026 20.1985 21.103 19.5317 20.692 19.1199L16.4849 14.9044ZM9.85152 14.5949C7.22686 14.5949 5.10816 12.4762 5.10816 9.85152C5.10816 7.22686 7.22686 5.10816 9.85152 5.10816C12.4762 5.10816 14.5949 7.22686 14.5949 9.85152C14.5949 12.4762 12.4762 14.5949 9.85152 14.5949Z" fill="#D1D0D1"/>
</g>
<defs>
<clipPath id="clip0_17_1571">
<rect width="24" height="24" rx="1" fill="white"/>
</clipPath>
</defs>
</svg>
