<svg width="153" height="153" viewBox="0 0 153 153" fill="none" xmlns="http://www.w3.org/2000/svg">
<g clip-path="url(#clip0_16_1052)">
<path d="M70.4276 73.2291V70.0337H61.6943V71.205H68.5331V73.2291H70.4276Z" fill="#171617"/>
<path d="M81.1905 73.2292V64.593H79.4309V67.5725H78.6105V64.593H76.8509V71.5775H73.6987V65.6995H76.0952V64.593H71.9175V72.7002H76.8509V73.2292H78.6105V68.7438H79.4309V73.2292H81.1905Z" fill="#171617"/>
<path d="M64.1934 69.4076C65.953 69.4076 67.3348 68.3929 67.3348 66.9032C67.3348 65.4134 65.9476 64.3987 64.1934 64.3987C62.4392 64.3987 61.052 65.408 61.052 66.9032C61.052 68.3983 62.4284 69.4076 64.1934 69.4076ZM64.1934 65.4458C64.8951 65.4458 65.4618 66.0234 65.4618 66.8924C65.4618 67.7614 64.9275 68.3605 64.1934 68.3605C63.4593 68.3605 62.925 67.7614 62.925 66.8924C62.925 66.0234 63.4755 65.4458 64.1934 65.4458Z" fill="#171617"/>
<path d="M91.4135 73.229V70.2495H82.6802V71.4208H89.5405V73.229H91.4135Z" fill="#171617"/>
<path d="M85.4275 69.7044C87.1763 69.7044 88.3584 68.7112 88.3584 67.4158C88.3584 66.8653 88.1371 66.3633 87.7485 65.9801H88.8118V64.9167H86.3613V64.1719H84.4883V64.9167H82.0378V65.9801H83.1012C82.7179 66.3633 82.4966 66.8653 82.4966 67.4158C82.4966 68.7166 83.6787 69.7044 85.4275 69.7044ZM85.4275 65.9423C86.0644 65.9423 86.5772 66.4766 86.5772 67.2971C86.5772 68.1175 86.0968 68.6627 85.4275 68.6627C84.7582 68.6627 84.2778 68.1067 84.2778 67.2971C84.2778 66.4874 84.7798 65.9423 85.4275 65.9423Z" fill="#171617"/>
<path d="M101.96 64.593H93.1192V65.7643H100.131V72.0579H98.8947V67.308H97.189V72.0579H96.1257V67.308H94.4201V72.0579H92.8008V73.2292H102.813V72.0579H101.96V64.593Z" fill="#171617"/>
<path d="M91.4135 68.4793H92.5848V67.308H91.4135V64.593H89.5405V69.8233H91.4135V68.4793Z" fill="#171617"/>
<path d="M70.4278 64.593H68.5332V69.6128H70.4278V64.593Z" fill="#171617"/>
<path d="M50.7211 71.3993C50.7211 72.6029 52.4483 73.445 55.1957 73.445C57.9431 73.445 59.6703 72.6029 59.6703 71.3993C59.6703 70.8325 59.2871 70.3845 58.5854 70.0769H60.2047V68.9596H56.1565V68.5224C58.2022 68.3766 59.3518 67.7451 59.3518 66.9355C59.3518 66.5414 59.0982 66.223 58.607 65.9747H60.0967V64.9114H56.1565V64.1665H54.2403V64.9114H50.3001V65.9747H51.7898C51.2986 66.2176 51.045 66.5414 51.045 66.9355C51.045 67.7451 52.1946 68.3712 54.2403 68.5224V68.9596H50.1921V70.0769H51.8114C51.1097 70.3845 50.7265 70.8325 50.7265 71.3993H50.7211ZM53.3497 67.2971C53.0744 67.1676 52.9557 66.9894 52.9557 66.7843C52.9557 66.5792 53.0744 66.4011 53.3497 66.2716C53.7545 66.0773 54.4562 65.9747 55.1957 65.9747C55.9352 65.9747 56.6315 66.0826 57.0363 66.2716C57.3116 66.4011 57.4303 66.5792 57.4303 66.7843C57.4303 66.9894 57.3116 67.1676 57.0363 67.2971C56.6315 67.5022 55.9406 67.594 55.1957 67.594C54.4508 67.594 53.7545 67.4968 53.3497 67.2971ZM53.3389 70.4169C53.7869 70.2226 54.467 70.12 55.1903 70.12C55.9136 70.12 56.5937 70.228 57.0417 70.4169C57.5113 70.622 57.7434 70.9081 57.7434 71.2481C57.7434 71.5882 57.5167 71.8743 57.0417 72.0794C56.5937 72.2737 55.9136 72.3762 55.1903 72.3762C54.467 72.3762 53.7815 72.2683 53.3389 72.0794C52.8585 71.8743 52.6372 71.5882 52.6372 71.2481C52.6372 70.9081 52.8693 70.622 53.3389 70.4169Z" fill="#171617"/>
<path d="M78.7131 79.447L76.5001 81.3038L74.3033 79.4578L74.2925 79.447H57.6949L50.6727 87.1278L50.6619 87.1386V110.462H69.4994L71.8258 112.41L71.8366 112.421H81.1636L83.5008 110.467H102.187V87.144L95.1488 79.4524H78.7077L78.7131 79.447ZM76.8456 81.9191L78.9668 80.1433H94.4795V102.295H78.7131L76.8456 103.855V81.9245V81.9191ZM58.3642 80.1433H74.0334L76.1493 81.9191V103.85L74.2979 102.3L74.2871 102.29H58.3642V80.1379V80.1433ZM58.1699 102.991H74.0388L76.4785 105.026L76.5055 105.048L78.9722 102.991H94.6846L95.7857 104.163H80.4727L78.1356 106.117H74.8808L72.5545 104.168L72.5437 104.157H57.0796L58.1807 102.986L58.1699 102.991ZM56.6154 81.6546L57.6733 80.4995V102.506L56.6154 103.634V81.66V81.6546ZM54.8612 83.5708L55.9191 82.4103V104.368L54.8612 105.496V83.5708ZM53.107 85.4923L54.1649 84.3318V106.241L53.107 107.369V85.4923ZM51.3528 87.4085L52.4107 86.248V108.103L51.3528 109.231V87.4031V87.4085ZM100.438 86.2534L101.496 87.4085V109.236L100.438 108.108V86.2534ZM101.043 109.771H83.2525L80.9153 111.725H72.0903L69.7639 109.776L69.7531 109.765H51.8115L52.9127 108.589H70.4278L72.7542 110.537L72.765 110.548H80.2406L82.5778 108.594H99.9418L101.043 109.771ZM98.6842 84.3372L99.7421 85.4923V107.369L98.6842 106.241V84.3372ZM99.2887 107.898H82.3241L79.987 109.852H73.0187L70.6923 107.903L70.6815 107.892H53.5658L54.6669 106.721H71.3562L73.6826 108.67L73.6934 108.68H79.3069L81.644 106.726H98.1822L99.2833 107.898H99.2887ZM96.93 82.4211L97.9879 83.5762V105.496L96.93 104.368V82.4211ZM97.5345 106.03H81.3957L79.0586 107.984H73.9471L71.6207 106.036L71.6099 106.025H55.32L56.4211 104.853H72.2846L74.611 106.797L74.6218 106.807H78.3839L80.721 104.853H96.4334L97.5345 106.025V106.03ZM95.1758 80.5049L96.2337 81.66V103.628L95.1758 102.5V80.5049Z" fill="#171617"/>
<path d="M66.9193 54.7424H60.928V43.9634H84.8879V46.3599H86.0807V42.7651H59.7351V55.9406H66.9193V54.7424Z" fill="#171617"/>
<path d="M84.8878 46.3599H66.9192V54.7423H84.8878V46.3599Z" fill="#171617"/>
<path d="M86.0806 55.9406H66.9192V59.5354H93.2702V46.3599H86.0806V55.9406Z" fill="#171617"/>
<path d="M122.73 66.6009C122.439 65.7103 121.905 64.987 121.37 64.3393C118.634 60.6095 116.755 57.7866 115.789 55.946C114.44 53.3768 114.046 51.5416 113.182 47.5204L113.16 47.4178C112.923 46.3221 112.659 45.0861 112.329 43.6287C111.73 40.9893 110.284 39.0894 108.141 38.134C102.97 35.4082 98.0364 32.0995 95.3862 30.0916C93.0437 28.3158 89.1142 24.0031 89.0764 23.9653L89.0117 23.9167C88.9253 23.8736 88.1049 23.5065 86.518 23.6091C84.9257 23.7116 83.301 24.9315 82.5616 26.5777C81.8221 28.224 82.6533 30.0538 83.5493 30.5882C83.6195 30.6313 83.7112 30.6853 83.8246 30.7609C82.8045 31.2629 79.7818 32.5961 76.5001 32.5961C73.2183 32.5961 70.1957 31.2629 69.1755 30.7609C69.2943 30.6853 69.3806 30.6313 69.4508 30.5882C70.3468 30.0484 71.178 28.2186 70.4386 26.5777C69.6991 24.9315 68.069 23.7062 66.4821 23.6091C64.9007 23.5065 64.0748 23.8736 63.9723 23.9275L63.9291 23.9599L63.9183 23.9707C63.8805 24.0139 59.9295 28.3428 57.6085 30.097C54.9637 32.1049 50.0357 35.4136 44.8702 38.134C42.7166 39.0947 41.2646 40.9947 40.6655 43.6341C40.3254 45.1346 40.0448 46.4409 39.8181 47.488L39.8073 47.5258C38.9437 51.547 38.5442 53.3876 37.2002 55.9514C35.8238 58.5692 32.8498 62.7092 31.6407 64.3609C31.0038 65.014 30.5234 65.7858 30.2589 66.6063C29.0985 70.1687 31.8026 72.6623 32.9145 73.1697C34.156 73.7311 37.319 74.1467 38.636 71.7178C38.9221 71.1942 39.1704 70.4439 39.1919 70.3468C39.6993 67.988 41.3942 65.91 41.8368 65.3972C44.2549 67.1946 45.8796 71.5666 46.1926 77.11C46.4733 82.0649 44.7029 85.406 43.143 87.3546C42.7058 86.885 41.7504 85.7083 41.0703 83.8407C40.8058 82.9609 39.9854 82.0811 39.0246 81.6439C38.3175 81.3201 37.1678 81.0772 35.7321 81.7357C34.6688 82.2269 33.8861 83.0851 33.4759 84.2132C33.0063 85.5086 33.0819 87.0361 33.6756 88.2938C33.7782 88.5043 33.8969 88.7202 34.0426 88.9253L34.0211 88.9361L34.1398 89.1142C34.1668 89.152 36.6713 92.9627 37.9397 96.7086C38.3985 98.058 38.8087 99.5963 39.2513 101.243C40.0987 104.4 41.2214 108.346 42.4521 110.839C45.7392 117.522 50.3056 121.926 57.2577 125.132C65.7751 129.056 74.2817 129.056 77.0776 129.056C83.803 129.056 90.0804 127.734 95.7317 125.132C102.63 121.953 107.38 117.349 110.683 110.64C111.876 108.216 113.743 101.221 113.743 101.221C114.175 99.5963 114.591 98.0634 115.044 96.714C116.361 92.8223 118.785 89.1628 118.806 89.1304C119.033 88.8065 119.19 88.542 119.303 88.2992C119.897 87.0415 119.972 85.514 119.503 84.2186C119.092 83.0851 118.31 82.2323 117.246 81.7411C115.811 81.0826 114.661 81.3255 113.954 81.6493C113.036 82.0649 112.291 82.8854 112.022 83.7814C111.352 85.622 110.311 86.858 109.836 87.36C108.756 86.0052 106.413 82.4158 106.619 76.9318C106.824 71.4101 108.389 67.4267 111.142 65.3972C111.703 66.0341 112.993 67.6966 113.83 70.3036C113.911 70.7678 114.078 71.2428 114.337 71.7178C115.654 74.1467 118.817 73.7311 120.064 73.1697C121.181 72.6623 123.88 70.1741 122.72 66.6063L122.73 66.6009ZM83.355 26.9394C83.9703 25.5738 85.2927 24.5644 86.572 24.4781C86.7393 24.4673 86.9012 24.4619 87.047 24.4619C87.8836 24.4619 88.3963 24.613 88.5691 24.6778C89.0333 25.1852 92.6281 29.093 94.8627 30.7879C97.0433 32.4395 100.859 35.0466 105.123 37.4755C103.002 37.4377 101.232 38.2365 100.395 39.084C98.3549 41.1512 98.2469 43.1915 98.4197 44.6381C96.5899 41.9717 93.8965 38.3661 91.1059 35.7644C86.1078 31.1063 84.5209 30.1563 83.9973 29.8433C83.3874 29.4762 82.8206 28.1269 83.355 26.934V26.9394ZM103.655 46.1278C103.655 46.1278 103.024 45.0375 103.515 44.0281C104.033 42.9702 105.059 42.7003 105.852 42.8947C106.759 43.1214 108.502 44.3898 108.114 46.8511C107.714 49.361 105.037 49.6902 103.515 49.4905C102.495 49.3556 100.994 48.7025 100.12 47.3045C100.023 47.1318 99.8554 46.8079 99.8392 46.7755C99.7421 46.5542 99.6611 46.3383 99.6017 46.1116C99.3535 45.1832 99.1052 43.958 99.3588 42.6841C99.877 43.1106 101.583 44.5787 102.932 46.592L102.975 46.6514L103.699 46.1872L103.661 46.1224L103.655 46.1278ZM102.732 43.6503C102.597 43.931 102.506 44.2225 102.462 44.5247C101.324 43.1645 100.212 42.2415 99.6125 41.7828C99.904 41.0379 100.363 40.3524 101.011 39.6993C101.102 39.6075 101.205 39.5212 101.307 39.4348C102.371 40.5467 103.661 41.4643 104.605 42.0634C103.785 42.2739 103.121 42.8299 102.722 43.6449L102.732 43.6503ZM58.1429 30.7879C60.3829 29.093 63.9723 25.1852 64.4365 24.6778C64.6793 24.5914 65.3325 24.4079 66.4336 24.4781C67.7182 24.559 69.0406 25.5684 69.6505 26.934C70.1849 28.1269 69.6181 29.4762 69.0082 29.8433C68.4846 30.1563 66.8978 31.1063 61.8996 35.7644C59.0874 38.3823 56.3995 42.031 54.5751 44.7244C54.764 43.2455 54.6722 41.1674 52.6103 39.0786C51.8763 38.3337 50.2408 37.4701 48.044 37.4701C47.99 37.4701 47.936 37.4701 47.8821 37.4701C52.1462 35.0358 55.9622 32.4341 58.1429 30.7825V30.7879ZM49.4905 44.0335C49.9817 45.0429 49.3772 46.09 49.3502 46.1332L49.3124 46.198L50.0357 46.6622L50.0789 46.6028C51.4337 44.5895 53.1339 43.1213 53.6521 42.6949C53.9004 43.9688 53.6521 45.194 53.4092 46.1224C52.8694 48.1627 51.0019 49.3016 49.4905 49.5013C47.9684 49.701 45.2912 49.3718 44.8918 46.8619C44.5032 44.406 46.2358 43.1429 47.1426 42.9108H47.1534C47.3099 42.8677 47.4772 42.8515 47.6446 42.8515C48.0224 42.8515 48.967 42.9702 49.4905 44.0443V44.0335ZM48.3894 42.0634C49.3394 41.4643 50.624 40.5467 51.6874 39.4348C51.8007 39.5212 51.8979 39.6075 51.9842 39.6993C52.6319 40.3578 53.0907 41.0379 53.3822 41.7828C52.8802 42.166 51.7143 43.1213 50.5377 44.5247C50.4945 44.2225 50.4081 43.9256 50.2678 43.6449C49.8684 42.8299 49.2045 42.2739 48.3894 42.058V42.0634ZM38.2959 70.1309L38.269 70.2604C38.1988 70.5951 38.0692 70.9405 37.8803 71.2914C36.8548 73.1859 34.2909 72.8243 33.2816 72.3655C32.3586 71.9445 30.1186 69.8664 31.0956 66.8653C31.2683 66.331 31.549 65.8236 31.916 65.3594C32.0509 65.1921 32.2291 64.987 32.283 64.9438L32.2992 64.933C32.8552 64.377 33.5461 63.929 34.3017 63.6484C34.9764 63.3947 35.6943 63.2651 36.4392 63.2651C36.6821 63.2651 36.9358 63.2813 37.1894 63.3083C36.898 64.1234 35.9534 66.2878 34.5986 67.8531L34.5446 67.9125L35.2409 68.4576L35.2895 68.3983C35.2895 68.3983 36.0344 67.4537 36.9681 67.7775C37.5241 67.9664 37.9829 68.4036 38.1988 68.9434C38.3391 69.2996 38.3715 69.6937 38.3013 70.1255L38.2959 70.1309ZM38.9275 68.4468C38.5982 67.7559 37.9829 67.2054 37.2488 66.9517C37.0167 66.8761 36.7792 66.833 36.5471 66.833C36.5201 66.833 36.4985 66.833 36.4716 66.833C37.3352 65.4943 37.8264 64.1773 38.0584 63.4595C38.8573 63.6484 39.6399 63.9722 40.3848 64.4202C40.6331 64.566 40.876 64.7171 41.1243 64.879C40.6169 65.4674 39.7155 66.6548 38.9275 68.4414V68.4468ZM41.0379 85.8217C41.6802 86.9929 42.2956 87.7108 42.5762 88.0131C41.7234 88.9253 40.7896 89.6054 39.9476 89.94C39.7965 89.9994 39.6399 90.048 39.4672 90.0965C39.2243 89.1034 38.7116 88.1642 38.2959 87.5111C38.6522 87.5381 38.9922 87.5003 39.3593 87.3924C40.0933 87.1711 40.7357 86.5665 41.0379 85.8271V85.8217ZM34.4744 87.9159C33.9779 86.8634 33.9131 85.5896 34.3071 84.5047C34.6364 83.5979 35.2571 82.9124 36.1099 82.5183C36.5957 82.297 37.0761 82.1837 37.5403 82.1837C37.9397 82.1837 38.3229 82.2647 38.6792 82.4266C39.4132 82.7612 40.061 83.4467 40.2553 84.089C40.6439 85.406 39.8235 86.3182 39.111 86.5449C38.2474 86.8202 37.6266 86.5611 36.9627 85.6489L36.9196 85.5896L36.2017 86.1131L36.2557 86.1779C36.3312 86.2697 38.1232 88.3747 38.6144 90.2369C36.8872 90.3664 35.1923 89.4165 34.4798 87.9105L34.4744 87.9159ZM112.864 84.0405C113.063 83.3658 113.625 82.7504 114.326 82.432C114.872 82.1837 115.762 82.0002 116.896 82.5237C117.743 82.9124 118.369 83.6033 118.698 84.5101C119.092 85.5896 119.028 86.8634 118.526 87.9213C117.813 89.4326 116.118 90.3772 114.391 90.2477C114.888 88.3693 116.734 86.2103 116.75 86.1887L116.804 86.1239L116.081 85.6004L116.037 85.6597C115.309 86.6637 114.764 86.7123 113.884 86.4478C113.112 86.2157 112.491 85.2927 112.858 84.0405H112.864ZM112.07 85.7731C112.351 86.5126 112.928 87.0685 113.635 87.2844C114.067 87.414 114.418 87.4787 114.72 87.4787C114.294 88.1426 113.776 89.0926 113.528 90.0912C113.355 90.0426 113.193 89.994 113.047 89.9346C112.205 89.6 111.271 88.9199 110.419 88.0077C110.791 87.6299 111.444 86.8796 112.065 85.7677L112.07 85.7731ZM105.76 76.8887C105.534 84.4561 109.701 89.546 112.729 90.7443C114.105 91.2894 115.616 91.2462 116.912 90.6363C116.059 92.1368 114.947 94.2905 114.224 96.4225C113.76 97.7989 113.344 99.3426 112.907 100.983L112.783 101.448C112.016 104.319 111.061 107.898 109.906 110.251C106.694 116.777 102.079 121.251 95.3754 124.339C89.8375 126.892 83.6843 128.182 77.083 128.182C74.3356 128.182 65.9694 128.182 57.6247 124.339C50.8669 121.224 46.4301 116.944 43.2401 110.456C42.0419 108.027 40.93 104.13 40.0987 101.005L40.0879 100.973C39.6507 99.3372 39.2351 97.7989 38.7709 96.4279C38.0477 94.3013 36.9357 92.1422 36.0829 90.6417C37.3784 91.2516 38.8843 91.2894 40.2661 90.7443C43.0836 89.6324 47.4179 84.9311 47.0724 77.0668C46.7756 70.2928 44.7892 66.0395 40.8274 63.6754C38.5712 62.326 36.1423 62.0291 33.9887 62.8333C33.9077 62.8657 33.8213 62.8981 33.7404 62.9305C35.1491 60.9442 36.9627 58.2724 37.9721 56.3508C39.3755 53.679 39.7803 51.8061 40.6601 47.6985V47.6715C40.903 46.5596 41.1729 45.3074 41.5129 43.8176C41.9987 41.6694 43.1214 40.0609 44.7623 39.1541L45.2264 38.9166C45.4963 38.7979 45.7824 38.6899 46.0685 38.609C47.6338 38.161 49.5175 38.3067 50.9047 38.9652C49.0371 40.8436 46.4193 42.1768 46.3114 42.2361C44.9458 42.927 43.6288 44.5355 44.012 46.9806C44.514 50.149 47.7525 50.5862 49.5877 50.3487C50.7968 50.1868 52.578 49.4095 53.6251 47.7363C53.6683 47.6661 57.9755 40.5953 62.4771 36.396C65.014 34.0318 66.9895 32.3262 68.3551 31.3168C68.9165 31.6299 72.4033 33.4597 76.4893 33.4597C80.5752 33.4597 84.0567 31.6245 84.6234 31.3168C85.989 32.3262 87.9645 34.0372 90.5014 36.396C93.9883 39.6453 97.3348 44.5571 99.0188 47.1965C100.174 49.0587 101.647 50.1166 103.391 50.3487C105.226 50.5862 108.465 50.149 108.967 46.9806C109.355 44.5355 108.027 42.9432 106.651 42.2685C106.624 42.2523 103.968 40.8706 102.074 38.9652C103.461 38.3013 105.345 38.161 106.91 38.609C107.207 38.6953 107.623 38.8573 107.752 38.9166C107.882 38.976 107.941 39.0084 108.017 39.0462L108.038 39.057C109.782 39.9422 110.969 41.5884 111.471 43.8176C111.822 45.3613 112.113 46.7161 112.324 47.7039C113.209 51.8061 113.608 53.679 115.012 56.3508C116.021 58.267 117.835 60.9442 119.244 62.9305C119.163 62.8927 119.076 62.8603 118.995 62.8333C116.847 62.0291 114.418 62.326 112.157 63.6754C107.984 66.1637 105.944 70.363 105.75 76.8887H105.76ZM114.073 68.4468C113.29 66.6656 112.389 65.4728 111.876 64.8844C112.113 64.7279 112.362 64.5714 112.615 64.4256C113.36 63.9776 114.143 63.6592 114.942 63.4649C115.174 64.1827 115.665 65.4997 116.529 66.8383C116.269 66.8276 116.005 66.8707 115.751 66.9571C115.017 67.2054 114.402 67.7559 114.073 68.4468ZM119.719 72.3709C118.709 72.8297 116.151 73.1913 115.12 71.2968C114.947 70.9729 114.796 70.5681 114.72 70.2064C114.645 69.7477 114.677 69.2889 114.807 68.9488C115.017 68.4036 115.476 67.9718 116.037 67.7829C116.183 67.7343 116.329 67.7074 116.475 67.7074C117.16 67.7074 117.694 68.3767 117.716 68.4036L117.765 68.463L118.461 67.9179L118.407 67.8585C117.052 66.2878 116.113 64.1288 115.816 63.3137C116.831 63.2004 117.797 63.3137 118.698 63.6538C119.454 63.9344 120.145 64.377 120.696 64.933C120.696 64.933 120.895 65.1435 121.079 65.3648C121.451 65.829 121.726 66.3364 121.899 66.8707C122.876 69.8664 120.636 71.9499 119.713 72.3709H119.719Z" fill="#171617"/>
<path d="M85.568 90.0965C86.5234 90.0047 87.8134 89.8698 89.0549 89.7348C89.0981 89.9777 89.1305 90.2044 89.1466 90.4149L90.1398 90.1181C90.0211 89.0763 89.5839 87.538 89.0117 86.3343L88.1049 86.6204C88.3964 87.2681 88.6609 88.0508 88.8552 88.7795C88.2506 88.828 87.6353 88.8874 87.0632 88.9306C87.5328 87.1926 88.0132 84.8608 88.2884 82.8799L87.1279 82.7288C86.9444 84.6935 86.5126 87.198 86.0538 89.0169L85.4331 89.0601L85.568 90.0965Z" fill="#171617"/>
<path d="M82.7343 84.7529C82.6425 85.6867 82.4644 86.8472 82.3079 87.6028L83.3064 87.7702L83.3712 87.4085H84.5748C84.4723 88.6338 84.3374 89.1735 84.1808 89.3355C84.0783 89.4218 84.0027 89.438 83.8624 89.438C83.6788 89.438 83.2848 89.4326 82.8854 89.3948C83.0635 89.6701 83.1823 90.0749 83.1985 90.388C83.6357 90.3934 84.0621 90.4042 84.3158 90.3718C84.618 90.3286 84.8231 90.2477 85.0228 90.0264C85.3089 89.7079 85.46 88.8659 85.6112 86.9174C85.6274 86.7824 85.6382 86.5125 85.6382 86.5125H83.5223C83.5655 86.2427 83.6087 85.9674 83.6411 85.6867H85.6166V82.8638H82.5076V83.7975H84.6504V84.7529H82.7451H82.7343Z" fill="#171617"/>
<path d="M84.4507 94.4631H87.8781V93.7074C88.2722 94.1608 88.7418 94.571 89.2383 94.8841C89.4165 94.6466 89.7835 94.285 90.021 94.1176C89.1736 93.6912 88.3747 92.9086 87.9699 92.1367H84.9958V93.0597H87.3762C87.5111 93.254 87.6622 93.4537 87.8242 93.6372H84.4561V94.4631H84.4507Z" fill="#171617"/>
<path d="M82.8853 97.7719C83.1281 97.6207 83.3818 97.4426 83.6247 97.2429V98.5707H82.4211V99.4721H89.8589V98.5707H88.7416V97.2105C88.9521 97.3724 89.1788 97.5128 89.4055 97.6369C89.5729 97.394 89.9345 97.0216 90.172 96.8489C89.2706 96.471 88.4502 95.7586 88.0507 95.0083H84.823V95.6128L83.9972 95.3537C83.6085 96.0338 82.896 96.6546 82.1404 97.027C82.3563 97.2051 82.7179 97.5883 82.8799 97.7773L82.8853 97.7719ZM85.0767 98.5707H84.5045V97.5614H85.0767V98.5707ZM86.4477 98.5707H85.8593V97.5614H86.4477V98.5707ZM87.8078 98.5707H87.2195V97.5614H87.8078V98.5707ZM84.8284 95.8935V95.9421H87.4732C87.6945 96.2389 87.9428 96.525 88.2289 96.7895H84.1105C84.3804 96.5142 84.6233 96.212 84.823 95.8881L84.8284 95.8935Z" fill="#171617"/>
<path d="M83.0527 94.9652C83.776 94.4525 84.5316 93.6104 84.9742 92.7468L83.9649 92.45C83.6032 93.1462 82.9555 93.8048 82.2646 94.2258C82.4913 94.3931 82.88 94.7709 83.0473 94.9652H83.0527Z" fill="#171617"/>
<path d="M67.4428 83.2145C67.4536 83.0364 67.459 82.8691 67.4698 82.7341H66.3255C66.2661 83.8406 66.3849 87.6567 63.033 89.5189C63.3676 89.7564 63.6969 90.0587 63.875 90.3177C65.6508 89.2328 66.5306 87.6135 66.984 86.0968C67.4536 87.6405 68.3928 89.3732 70.2927 90.3177C70.4546 90.0479 70.7569 89.7024 71.0646 89.4703C67.9286 87.9968 67.5076 84.375 67.4428 83.2145Z" fill="#171617"/>
<path d="M67.3026 95.235H69.5857V98.5221C69.5857 98.657 69.5372 98.7056 69.386 98.7056C69.2781 98.7164 68.965 98.7164 68.6358 98.7056V95.7207H65.3972V99.3587H66.304V98.9323H68.3875C68.49 99.1914 68.5818 99.5045 68.6034 99.715C69.3267 99.715 69.8124 99.688 70.1417 99.5207C70.4763 99.3587 70.5897 99.0672 70.5897 98.5275V92.1799H67.2972V95.2296L67.3026 95.235ZM67.6966 98.2036H66.3094V97.6801H67.6966V98.2036ZM67.6966 96.9676H66.3094V96.4656H67.6966V96.9676ZM68.2525 92.9086H69.5911V93.3512H68.2525V92.9086ZM68.2525 94.0259H69.5911V94.5225H68.2525V94.0259Z" fill="#171617"/>
<path d="M66.7196 92.1853H63.5027V99.7149H64.4958V95.2188H66.725V92.1853H66.7196ZM65.7859 94.5063H64.4904V94.0259H65.7859V94.5063ZM65.7859 93.3512H64.4904V92.9032H65.7859V93.3512Z" fill="#171617"/>
<path d="M133.898 76.3921C133.898 44.746 108.151 18.9995 76.5054 18.9995C44.8593 18.9995 19.1074 44.746 19.1074 76.3921C19.1074 108.038 44.8539 133.79 76.5054 133.79C108.157 133.79 133.898 108.044 133.898 76.3921ZM76.5 132.889C45.3505 132.889 20.0034 107.547 20.0034 76.3921C20.0034 45.2372 45.3451 19.9009 76.5 19.9009C107.655 19.9009 132.991 45.2426 132.991 76.3921C132.991 107.542 107.649 132.889 76.5 132.889Z" fill="#171617"/>
<path d="M76.5 0C34.3179 0 0 34.3179 0 76.5C0 118.682 34.3179 153 76.5 153C118.682 153 153 118.682 153 76.5C153 34.3179 118.682 0 76.5 0ZM76.5 152.093C34.8198 152.093 0.906795 118.186 0.906795 76.5C0.906795 34.8144 34.8198 0.906795 76.5 0.906795C118.18 0.906795 152.099 34.8198 152.099 76.5054C152.099 118.191 118.186 152.099 76.5 152.099V152.093Z" fill="#171617"/>
<path d="M18.7079 59.8323L13.7367 58.132L15.5341 52.8748L20.5053 54.575L21.1584 52.6535L9.68315 48.7402L9.03004 50.6564L13.8015 52.2864L12.0041 57.5437L7.23804 55.9136L6.59033 57.8028L18.0656 61.7214L18.7079 59.8323Z" fill="#171617"/>
<path d="M16.4087 48.33C17.4774 48.9508 18.6973 49.3232 19.9063 49.3232C21.7091 49.3232 23.4795 48.492 24.6886 46.4139C25.5738 44.8918 25.7789 43.2995 25.2769 41.8043C24.8127 40.401 23.7224 39.1487 22.2165 38.2743C20.5433 37.3028 18.8592 37.0167 17.3479 37.4485C15.9553 37.8479 14.7786 38.8141 13.942 40.2444C12.2418 43.1699 13.2565 46.4949 16.4087 48.33ZM15.5343 41.0757C16.1064 40.0933 16.9539 39.4888 17.9848 39.3269C18.1683 39.2999 18.3572 39.2837 18.5515 39.2837C19.3612 39.2837 20.2248 39.532 21.0452 40.0124C22.9506 41.1189 24.4997 43.1483 23.1233 45.5233C22.5242 46.5596 21.666 47.148 20.5756 47.2721C19.6041 47.3855 18.4652 47.0994 17.3749 46.4679C16.263 45.8256 15.5019 44.9781 15.1781 44.0228C14.8488 43.0674 14.9729 42.0472 15.5397 41.0811L15.5343 41.0757Z" fill="#171617"/>
<path d="M29.7028 38.7384L23.2851 33.0764L33.4595 34.4797L34.6956 33.0764L25.6061 25.0555L24.3052 26.5237L30.7392 32.1966L20.5269 30.8094L19.2693 32.2397L28.3588 40.2605L29.7028 38.7384Z" fill="#171617"/>
<path d="M35.7321 29.8973C36.0991 29.9836 36.4662 30.0214 36.8278 30.0214C37.9667 30.0214 39.0894 29.6166 40.1257 28.8178C41.3024 27.9164 42.0473 26.7397 42.1984 25.5738L42.9541 26.4536L44.3034 25.4173L40.3524 20.268L35.9912 23.6145L37.0869 25.0395L40.0016 22.8049C40.9246 24.4619 40.6223 26.1406 39.1919 27.2417C37.0599 28.8771 34.8901 27.6087 33.681 26.0326C32.8929 25.0017 32.4557 23.9599 32.4234 23.0208C32.3856 21.952 32.8606 21.0345 33.8375 20.2842C35.2193 19.2263 36.6928 19.2532 37.8911 20.349L38.0422 20.4893L39.586 19.1453L39.4024 18.9726C37.4755 17.1428 35.0142 17.0564 32.8174 18.7405C29.9459 20.9427 29.6274 24.219 31.9862 27.2903C33.0441 28.672 34.3395 29.568 35.7321 29.8865V29.8973Z" fill="#171617"/>
<path d="M42.4015 12.7522L40.6436 13.7335L46.5523 24.319L48.3103 23.3377L42.4015 12.7522Z" fill="#171617"/>
<path d="M52.4052 21.2935L50.9316 17.5583L51.8816 15.4641L57.9431 19.1182L60.4314 18.1413L52.7074 13.6343L55.6383 6.98987L53.1068 7.98842L50.0194 15.2212L47.9683 10.0071L46.1116 10.7412L50.5484 22.0275L52.4052 21.2935Z" fill="#171617"/>
<path d="M65.7858 15.4803C66.5414 16.3763 67.6641 16.8243 69.1431 16.8243C69.4345 16.8243 69.7422 16.8081 70.0606 16.7703C72.1063 16.5436 73.4719 15.5181 73.9145 13.888C74.1304 13.0999 74.0495 12.096 73.9523 11.2216L73.1589 4.08057L71.124 4.30727L71.8904 11.2378C72.0793 12.9434 72.0631 14.6275 69.6666 14.8919C67.3025 15.1564 66.9354 13.6829 66.7357 11.8747L65.9585 4.87941L63.9236 5.10611L64.6738 11.8531C64.8034 13.0406 64.9707 14.5141 65.7804 15.4803H65.7858Z" fill="#171617"/>
<path d="M79.2582 7.71857L84.2347 16.7002L86.1023 16.8513L87.0685 4.76609L85.1146 4.60416L84.4291 13.1539L79.4201 4.15077L77.5201 3.99963L76.5486 16.0848L78.5727 16.2468L79.2582 7.71857Z" fill="#171617"/>
<path d="M91.2047 5.65838L88.5623 17.4899L90.5271 17.9287L93.1696 6.09723L91.2047 5.65838Z" fill="#171617"/>
<path d="M97.7881 20.187L106.219 10.3526L104.19 9.61309L98.0688 17.0024L98.0472 7.37309L95.9854 6.61743L96.1365 19.5824L97.7881 20.187Z" fill="#171617"/>
<path d="M110.273 26.5238L111.196 24.9207L105.415 21.6066L107.115 18.6379L112.41 21.6659L113.328 20.0628L108.038 17.0348L109.576 14.3468L115.179 17.5584L116.135 15.9013L108.778 11.6858L102.749 22.2111L110.273 26.5238Z" fill="#171617"/>
<path d="M113.295 28.8987L116.426 25.2067L118.115 26.6371C118.374 26.853 119.06 27.4359 119.249 27.83C119.6 28.5802 119.146 29.2603 118.666 29.9728C118.59 30.0862 118.515 30.1995 118.445 30.3129C117.991 31.0199 117.759 31.4841 117.554 32.3424L117.522 32.4773L119.519 34.1667L119.47 33.6108C119.4 32.8011 119.918 31.9483 120.42 31.1279C121.041 30.1131 121.683 29.066 121.219 28.0513C122.288 28.3212 123.416 27.9325 124.242 26.9556C124.814 26.2809 125.116 25.6008 125.154 24.8883C125.256 23.3662 124.333 22.3568 123.319 21.504L119.6 18.3518L111.762 27.6033L113.285 28.8933L113.295 28.8987ZM119.956 21.0452L121.624 22.454C122.817 23.4633 123.718 24.4079 122.639 25.6763C121.797 26.6749 120.868 26.6479 119.627 25.5954L117.57 23.8519L119.956 21.0398V21.0452Z" fill="#171617"/>
<path d="M126.865 37.8803C126.444 38.2258 125.969 38.3229 125.445 38.1664C124.987 38.0261 124.522 37.6968 124.145 37.2326C122.989 35.8346 123.022 34.6688 124.242 33.4435L124.409 33.2762L122.887 31.8674L122.73 32.0185C120.863 33.8483 120.836 36.0775 122.666 38.3013C123.41 39.2081 124.328 39.845 125.24 40.0987C125.543 40.1851 125.845 40.2229 126.142 40.2229C126.897 40.2229 127.621 39.9476 128.274 39.4132C130.368 37.686 129.472 35.5971 128.684 33.7458L128.5 33.3194C127.842 31.7595 127.723 31.4086 128.382 30.8689C128.77 30.545 129.197 30.4532 129.65 30.5936C130.05 30.7177 130.46 31.02 130.816 31.4518C131.766 32.6015 131.744 33.6 130.767 34.604L130.605 34.7713L132.047 36.1531L132.203 36.0074C132.721 35.5378 133.067 34.9872 133.304 34.2855C133.725 33.0225 133.353 31.7055 132.155 30.2481C130.972 28.8124 128.905 27.7059 126.967 29.3036C125.694 30.3561 125.472 31.6299 126.26 33.4435L126.86 34.8307C127.318 35.8886 127.842 37.0815 126.87 37.8857L126.865 37.8803Z" fill="#171617"/>
<path d="M136.862 36.8882L126.629 43.3994L127.71 45.098L137.942 38.5868L136.862 36.8882Z" fill="#171617"/>
<path d="M139.285 44.8377L130.076 49.3231L130.967 51.1475L140.175 46.6621L141.697 49.7819L143.387 48.9561L139.441 40.8651L137.752 41.6909L139.285 44.8377Z" fill="#171617"/>
<path d="M133.563 57.6785L134.157 59.5839L138.81 58.1319L147.111 60.3773L146.393 58.0888L140.521 56.5936L144.499 52.0219L143.792 49.7549L138.216 56.2266L133.563 57.6785Z" fill="#171617"/>
<path d="M8.54432 77.7362C8.56591 78.9722 8.69545 80.3702 10.0233 81.2878C10.6386 81.7088 11.3942 81.9301 12.2039 81.9301C12.2309 81.9301 12.2525 81.9301 12.2794 81.9301C13.3967 81.9139 14.3251 81.5415 14.962 80.8668C15.6152 80.1705 15.9498 79.1557 15.9336 77.9251L15.858 73.1914L3.84302 73.3857L3.8754 75.399L8.50653 75.3235L8.54432 77.7308V77.7362ZM14.0391 75.2425L14.066 76.8618C14.0984 78.67 13.9851 79.8574 12.2147 79.8898C11.7667 79.9006 11.1352 79.7873 10.7249 79.2259C10.3957 78.7671 10.3849 77.8549 10.3795 77.5095L10.3417 75.3019L14.0391 75.2425Z" fill="#171617"/>
<path d="M11.2593 91.6401C11.907 92.52 13.0189 92.9248 14.2657 92.6981C15.1293 92.5415 15.7825 92.2069 16.2682 91.6833C17.3046 90.5768 17.229 89.2274 16.9915 87.932L16.1171 83.1821L4.29639 85.352L4.65263 87.3005L9.37012 86.4369L9.76414 88.5959C9.82352 88.9252 9.98544 89.7996 9.88289 90.226C9.67778 91.0194 8.91132 91.2569 8.09089 91.5052C7.96135 91.543 7.83181 91.5862 7.70766 91.624C6.91422 91.883 6.44463 92.0882 5.75374 92.6225L5.64039 92.7089L6.10998 95.2673L6.42304 94.8031C6.87643 94.1392 7.81022 93.81 8.71161 93.4969C9.82352 93.1083 10.9678 92.7089 11.2539 91.6455L11.2593 91.6401ZM14.6867 85.4599L15.0754 87.5866C15.3668 89.1627 15.4586 90.3933 13.8285 90.6956C12.5601 90.9277 11.8638 90.3285 11.5723 88.747L11.0919 86.1238L14.6813 85.4653L14.6867 85.4599Z" fill="#171617"/>
<path d="M20.0575 98.247C18.8484 95.1164 15.6477 93.8425 12.2742 95.1488C10.752 95.7371 9.53219 96.7464 8.83591 97.9879C8.04786 99.4021 7.97229 101.048 8.6308 102.738C9.26231 104.362 10.3688 105.507 11.8316 106.052C12.4415 106.279 13.1108 106.392 13.8017 106.392C14.6653 106.392 15.5667 106.219 16.4573 105.874C19.9172 104.535 21.3313 101.54 20.0521 98.247H20.0575ZM10.2879 102.079C9.31089 99.5586 11.1083 97.826 13.1162 97.0487C13.8017 96.7842 14.471 96.6493 15.0917 96.6493C15.5451 96.6493 15.9715 96.7195 16.3709 96.8598C17.3101 97.1944 18.0226 97.9231 18.422 98.9595C18.8268 100.007 18.7729 101.038 18.2547 101.934C17.7743 102.765 16.9161 103.456 15.8312 103.877C13.7963 104.665 11.2702 104.605 10.2879 102.074V102.079Z" fill="#171617"/>
<path d="M29.5302 114.855L25.5252 117.84L22.2381 113.43L26.2431 110.445L25.0556 108.858L15.4209 116.037L16.6084 117.624L20.7807 114.515L24.0678 118.925L19.8955 122.034L21.0992 123.653L30.7339 116.469L29.5302 114.855Z" fill="#171617"/>
<path d="M36.0289 129.682C38.5226 126.935 38.447 123.626 35.8346 121.257C33.3517 119.001 29.9188 119.292 27.4899 121.969C26.3942 123.178 25.7519 124.625 25.6871 126.05C25.6115 127.669 26.2862 129.17 27.6248 130.39C28.7583 131.42 30.0484 131.949 31.3978 131.949C31.5867 131.949 31.7756 131.939 31.9699 131.917C33.4273 131.755 34.8684 130.962 36.0289 129.682ZM31.808 129.936C30.7177 130.168 29.7137 129.871 28.8177 129.051C26.8152 127.232 27.6518 124.884 29.0984 123.292C29.9512 122.353 30.9282 121.791 31.9213 121.672C32.0509 121.656 32.1858 121.651 32.3154 121.651C33.1682 121.651 33.9832 121.985 34.6957 122.633C36.5633 124.328 35.9803 126.644 34.5769 128.193C33.7349 129.121 32.7472 129.742 31.8026 129.942L31.808 129.936Z" fill="#171617"/>
<path d="M48.9075 130.584L41.4049 136.51L42.927 127.065L40.9137 125.883L34.8198 136.241L36.5309 137.244L36.6442 137.045C36.6766 136.991 39.2027 132.603 40.6276 130.152L39.1379 138.788L40.4279 139.544L47.2397 134.162C45.7931 136.532 43.2077 140.839 43.1753 140.893L43.0565 141.093L44.7784 142.108L50.8722 131.75L48.9021 130.589L48.9075 130.584Z" fill="#171617"/>
<path d="M52.7424 132.283L48.1948 143.404L50.0434 144.16L54.5909 133.038L52.7424 132.283Z" fill="#171617"/>
<path d="M61.6027 144.067L58.3426 134.53L58.2994 134.411L56.475 133.93L53.4092 145.551L55.3577 146.064L57.5167 137.871L60.7931 147.5L62.5905 147.97L65.6563 136.354L63.7725 135.857L61.6027 144.067Z" fill="#171617"/>
<path d="M73.8337 144.035C73.7743 144.796 73.6771 145.654 73.2777 146.285C72.8405 146.971 72.0956 147.268 70.9945 147.181C68.6412 146.998 68.5602 145.497 68.7006 143.705L69.2349 136.753L67.2108 136.597L66.6927 143.306C66.6009 144.488 66.4876 145.956 67.1029 147.046C67.7884 148.255 69.1054 148.946 71.0269 149.092C71.205 149.103 71.3778 149.114 71.5451 149.114C73.3155 149.114 74.6433 148.374 75.3072 146.998C75.6689 146.269 75.7714 145.276 75.8362 144.407L76.3813 137.304L74.3572 137.147L73.8283 144.035H73.8337Z" fill="#171617"/>
<path d="M87.2195 136.289L84.8392 145.546L80.3322 137.109L78.0112 137.385L79.4362 149.319L81.4063 149.081L81.3793 148.849C81.3739 148.79 80.7262 143.765 80.3754 140.952L84.4182 148.72L85.9025 148.541L88.0615 140.132C88.3476 142.89 88.8982 147.888 88.9036 147.948L88.9305 148.18L90.9169 147.942L89.4919 136.014L87.2249 136.284L87.2195 136.289Z" fill="#171617"/>
<path d="M104.044 136.829C104.67 136.073 104.783 135.064 104.341 133.979C103.866 132.802 103.061 132.171 101.96 132.095C101.043 132.036 100.093 132.36 99.2777 132.689L95.2241 134.33L99.7365 145.47L103.499 143.948C104.859 143.398 108.049 142.108 106.716 138.81C106.208 137.552 105.247 136.856 104.038 136.829H104.044ZM97.7664 135.226L99.92 134.351C100.395 134.157 101.01 133.941 101.518 134.001C102.014 134.055 102.354 134.351 102.592 134.929C102.802 135.458 102.738 135.938 102.398 136.365C102.122 136.71 101.075 137.131 100.73 137.272L98.8945 138.016L97.761 135.226H97.7664ZM102.651 142.329L100.924 143.031L99.5746 139.695L101.712 138.831C102.894 138.351 104.206 137.973 104.832 139.512C105.453 141.05 104.033 141.778 102.657 142.334L102.651 142.329Z" fill="#171617"/>
<path d="M111.519 138.054L109.76 135.161L114.925 132.025L113.97 130.454L108.81 133.596L107.218 130.978L112.691 127.653L111.703 126.028L104.524 130.39L110.764 140.661L118.11 136.197L117.16 134.627L111.519 138.054Z" fill="#171617"/>
<path d="M118.418 120.334L124.004 126.724L114.159 124.053L112.734 125.299L120.641 134.346L122.158 133.023L116.582 126.643L126.39 129.321L127.788 128.101L119.88 119.049L118.418 120.334Z" fill="#171617"/>
<path d="M130.228 122.595L127.599 120.458L131.41 115.768L129.985 114.612L126.174 119.298L123.799 117.371L127.842 112.405L126.368 111.201L121.068 117.721L130.39 125.3L135.814 118.634L134.389 117.473L130.228 122.595Z" fill="#171617"/>
<path d="M136.694 106.996L135.123 106.079L132.43 110.683L129.785 109.139L132.737 104.093L131.107 103.143L127.146 109.927L137.52 115.994L138.534 114.256L134 111.601L136.694 106.996Z" fill="#171617"/>
<path d="M132.47 99.7716L131.671 101.602L142.689 106.409L143.487 104.578L132.47 99.7716Z" fill="#171617"/>
<path d="M143.991 90.5066L143.776 90.3987L142.998 92.2123L143.166 92.3148C144.58 93.2 145.163 94.6142 144.731 96.0931C144.018 98.5275 141.643 98.7704 139.663 98.1874C138.669 97.8959 135.49 96.7031 136.402 93.6103C136.845 92.1097 138.006 91.3541 139.657 91.4728L139.862 91.489L140.246 89.5189L140.008 89.4865C137.428 89.1087 135.42 90.4689 134.637 93.1245C134.135 94.8355 134.33 96.4008 135.199 97.6638C135.992 98.8081 137.325 99.6879 139.058 100.195C139.889 100.438 140.677 100.562 141.406 100.562C143.873 100.562 145.686 99.1914 146.431 96.6491C147.208 94.0043 146.275 91.6509 143.997 90.5066H143.991Z" fill="#171617"/>
<path d="M136.488 85.1249L136.174 87.0972L148.045 88.9859L148.359 87.0136L136.488 85.1249Z" fill="#171617"/>
<path d="M142.977 72.468C139.393 72.468 137.034 74.6702 136.948 78.1301C136.904 79.8411 137.487 81.3093 138.637 82.3672C139.711 83.3604 141.244 83.9325 142.944 83.9757C143.009 83.9757 143.074 83.9757 143.139 83.9757C146.129 83.9757 149.13 82.2592 149.227 78.3622C149.27 76.6188 148.687 75.1398 147.543 74.0765C146.469 73.078 144.925 72.5112 143.198 72.468C143.122 72.468 143.052 72.468 142.982 72.468H142.977ZM147.44 78.3406C147.413 79.5281 146.949 80.4457 146.064 81.0718C145.271 81.6331 144.153 81.9246 142.901 81.8976C141.633 81.8652 140.569 81.4928 139.83 80.8235C139.09 80.1488 138.713 79.2096 138.74 78.0977C138.767 76.975 139.215 76.0466 140.035 75.4151C140.764 74.8538 141.768 74.5515 142.869 74.5515C142.917 74.5515 142.966 74.5515 143.014 74.5515C145.2 74.6055 147.505 75.631 147.44 78.346V78.3406Z" fill="#171617"/>
<path d="M67.2108 116.534C67.0597 117.3 66.5415 117.673 65.6239 117.673H65.5483V118.461H67.0057V122.968H68.0312V116.475H67.2216L67.2108 116.534Z" fill="#171617"/>
<path d="M73.8983 116.869C73.4773 116.512 72.9861 116.334 72.3978 116.334C71.07 116.334 70.147 117.252 70.147 118.569C70.147 119.886 70.9998 120.755 72.2628 120.755C72.9159 120.755 73.4719 120.507 73.8497 120.042C73.8119 120.695 73.5852 122.142 72.3654 122.142C71.7339 122.142 71.3398 121.77 71.2751 121.127V121.052L70.2549 121.127V121.203C70.3683 122.32 71.1239 123.016 72.2358 123.016C73.2074 123.016 74.8375 122.574 74.8375 119.589C74.8375 118.299 74.5298 117.403 73.9037 116.858L73.8983 116.869ZM72.3708 119.843C71.6691 119.843 71.1617 119.319 71.1617 118.596C71.1617 117.77 71.6367 117.241 72.3708 117.241C73.1048 117.241 73.6446 117.808 73.6446 118.585C73.6446 119.324 73.121 119.837 72.3708 119.837V119.843Z" fill="#171617"/>
<path d="M79.9329 116.464H79.1395L76.1438 120.528V121.511H78.9236V122.968H79.9275V121.511H80.8829V120.615H79.9275V116.464H79.9329ZM78.9236 120.615H77.2017L78.9721 118.078C78.9559 118.785 78.929 120.264 78.9236 120.615Z" fill="#171617"/>
<path d="M84.7098 118.607C84.0513 118.607 83.4737 118.871 83.1121 119.325C83.2146 117.921 83.722 117.209 84.618 117.209C85.2279 117.209 85.6651 117.613 85.6975 118.218V118.294L86.6961 118.229L86.6853 118.148C86.5503 117.009 85.7839 116.329 84.6342 116.329C84.0459 116.329 82.1135 116.572 82.1135 119.719C82.1135 121.851 82.9825 123.027 84.5586 123.027C85.9026 123.027 86.804 122.137 86.804 120.814C86.804 119.492 85.9242 118.607 84.7098 118.607ZM84.5802 122.131C83.83 122.131 83.3064 121.581 83.3064 120.793C83.3064 120.059 83.8461 119.53 84.591 119.53C85.3359 119.53 85.8001 120.015 85.8001 120.83C85.8001 121.597 85.2981 122.131 84.5802 122.131Z" fill="#171617"/>
<path d="M8.56592 66.7087C8.56592 67.7235 9.38635 68.5439 10.4011 68.5439C11.4158 68.5439 12.2363 67.7235 12.2363 66.7087C12.2363 65.694 11.4158 64.8735 10.4011 64.8735C9.38635 64.8735 8.56592 65.694 8.56592 66.7087Z" fill="#171617"/>
<path d="M143.824 66.7087C143.824 65.694 143.004 64.8735 141.989 64.8735C140.974 64.8735 140.154 65.694 140.154 66.7087C140.154 67.7235 140.974 68.5439 141.989 68.5439C143.004 68.5439 143.824 67.7235 143.824 66.7087Z" fill="#171617"/>
</g>
<defs>
<clipPath id="clip0_16_1052">
<rect width="153" height="153" fill="white"/>
</clipPath>
</defs>
</svg>
